# xmcd
#
# Track frame offsets:
#	150
#	14396
#	29665
#	46652
#	61791
#	74820
#	90837
#	105277
#	121878
#	140424
#	156521
#	173275
#	191461
#
# Disc length: 2778 seconds
#
# Revision: 1
# Processed by: cddbd v1.4PL0 Copyright (c) Steve Scherf et al.
# Submitted via: audiograbber 1.82.02
#
DISCID=9f0ad80d
DTITLE=Frank Michael - Crooner
DYEAR=1900
DGENRE=
TTITLE0=Un amour fou
TTITLE1=Laisse moi rêver
TTITLE2=Le crooner
TTITLE3=Bonheur volé
TTITLE4=Amore scusami
TTITLE5=Lilas lilas
TTITLE6=J'y crois
TTITLE7=Quand on est en amour
TTITLE8=Viens
TTITLE9=On se quitte et pourtant
TTITLE10=Un petit homme
TTITLE11=Le coeur qui s'accroche
TTITLE12=Le crooner(version accoustique)
EXTD=
EXTT0=
EXTT1=
EXTT2=
EXTT3=
EXTT4=
EXTT5=
EXTT6=
EXTT7=
EXTT8=
EXTT9=
EXTT10=
EXTT11=
EXTT12=
PLAYORDER=
